<?xml version="1.0" encoding="utf-8"?>
<!-- Generator: Adobe Illustrator 18.1.1, SVG Export Plug-In . SVG Version: 6.00 Build 0)  -->
<svg version="1.1" id="Layer_1" xmlns="http://www.w3.org/2000/svg" xmlns:xlink="http://www.w3.org/1999/xlink" x="0px" y="0px"
	 viewBox="0 0 502.5 485.8" enable-background="new 0 0 502.5 485.8" xml:space="preserve">
<path fill="#329ED8" d="M187.4,270.5h77.2v0.2h0l43.3,45h29.4v17.5h59.2V276h-59.2v19.5h-20.8l-43.3-45h-17.7
	c4.1-8.9,9-17.4,13.7-26.9h-53.1v-0.4H37.3c1,0.4,2.1,0.8,3.3,1.2c13.4,3.9,17.4,10.9,14.1,18.3c-3.3,7.4-3.4,12.7,4.4,14.4l3.8,2.2
	c0,0-7,6.8-6.2,11.4h130.8V270.5z M355.6,294.2h22.9V317h-22.9V294.2z"/>
<path fill="none" stroke="#FFFFFF" stroke-width="4.578" stroke-linecap="round" stroke-linejoin="round" stroke-miterlimit="10" d="
	M187.4,270.5h77.2v0.2h0l43.3,45h29.4v17.5h59.2V276h-59.2v19.5h-20.8l-43.3-45h-17.7c4.1-8.9,9-17.4,13.7-26.9h-53.1v-0.4H37.3
	c1,0.4,2.1,0.8,3.3,1.2c13.4,3.9,17.4,10.9,14.1,18.3c-3.3,7.4-3.4,12.7,4.4,14.4l3.8,2.2c0,0-7,6.8-6.2,11.4h130.8V270.5z
	 M355.6,294.2h22.9V317h-22.9V294.2z"/>
<path fill="#733F97" d="M59.9,274c4.5,3.7,8.3,3.4,9.5,6.3c0.8,1.8,0.6,4.1-0.4,7c-2.4,7.2-6.3,27.6,16.4,24.3
	c0,0,10.6-2.1,29.7-4.9c16.2-2.4,24,14.3,28.6,33.6c0.1,0.4,0.3,0.9,0.4,1.3c18.1-1,36.3-2,54.6-3.2c18.4-1.2,36.6-2.4,54.7-3.8
	c-0.4-9.2-1.5-19.5-3.5-30.5c-1.1-6-2.4-11.7-3.8-17h-58.9v-16.5H56.6C57.2,271.5,58.3,272.7,59.9,274"/>
<path fill="none" stroke="#FFFFFF" stroke-width="4.578" stroke-linecap="round" stroke-linejoin="round" stroke-miterlimit="10" d="
	M59.9,274c4.5,3.7,8.3,3.4,9.5,6.3c0.8,1.8,0.6,4.1-0.4,7c-2.4,7.2-6.3,27.6,16.4,24.3c0,0,10.6-2.1,29.7-4.9
	c16.2-2.4,24,14.3,28.6,33.6c0.1,0.4,0.3,0.9,0.4,1.3c18.1-1,36.3-2,54.6-3.2c18.4-1.2,36.6-2.4,54.7-3.8
	c-0.4-9.2-1.5-19.5-3.5-30.5c-1.1-6-2.4-11.7-3.8-17h-58.9v-16.5H56.6C57.2,271.5,58.3,272.7,59.9,274z"/>
<path fill="#31499C" d="M204.7,92.6h94.4l34.1-29.3h43.9v19.5h59.2V23.6h-59.2v19.5h-51.4l-34.3,29.5h-35.6
	c-51.8-52-155-44-187.9,20.6h136.7V92.6z M395.2,41.7h22.9v22.9h-22.9V41.7z"/>
<path fill="none" stroke="#FFFFFF" stroke-width="4.578" stroke-linecap="round" stroke-linejoin="round" stroke-miterlimit="10" d="
	M204.7,92.6h94.4l34.1-29.3h43.9v19.5h59.2V23.6h-59.2v19.5h-51.4l-34.3,29.5h-35.6c-51.8-52-155-44-187.9,20.6h136.7V92.6z
	 M395.2,41.7h22.9v22.9h-22.9V41.7z"/>
<path fill="#F8CA17" d="M160.9,150.4h127.6v0h48.8v19.9h59.2v-59.2h-59.2v19.1h-52.9c-1.2-7.5-3-14.4-5.4-21h-74.5V93.1H68
	c-8.1,15.9-11.9,35.3-9.7,58h102.7V150.4z M355.6,129.3h22.9v22.8h-22.9V129.3z"/>
<path fill="none" stroke="#FFFFFF" stroke-width="4.578" stroke-linecap="round" stroke-linejoin="round" stroke-miterlimit="10" d="
	M160.9,150.4h127.6v0h48.8v19.9h59.2v-59.2h-59.2v19.1h-52.9c-1.2-7.5-3-14.4-5.4-21h-74.5V93.1H68c-8.1,15.9-11.9,35.3-9.7,58
	h102.7V150.4z M355.6,129.3h22.9v22.8h-22.9V129.3z"/>
<path fill="#D8218D" d="M216.2,206.9h107.5v0.1h10l23,30.5h54.7v18.2h59.2v-60.2h-59.2v21.8h-44.7l-23-30.5h-61.3
	c1.3-6.1,2.3-12.6,3-19.9H160.9v-15.9H58.2c0,0.4,0.1,0.8,0.1,1.3c0,0,2.3,18.6-14.9,43c-12,17.1-15.5,23.8-6.1,27.8h178.9V206.9z
	 M429.6,213.7h22.8v22.9h-22.8V213.7z"/>
<path fill="none" stroke="#FFFFFF" stroke-width="4.578" stroke-linecap="round" stroke-linejoin="round" stroke-miterlimit="10" d="
	M216.2,206.9h107.5v0.1h10l23,30.5h54.7v18.2h59.2v-60.2h-59.2v21.8h-44.7l-23-30.5h-61.3c1.3-6.1,2.3-12.6,3-19.9H160.9v-15.9H58.2
	c0,0.4,0.1,0.8,0.1,1.3c0,0,2.3,18.6-14.9,43c-12,17.1-15.5,23.8-6.1,27.8h178.9V206.9z M429.6,213.7h22.8v22.9h-22.8V213.7z"/>
<path fill="#322C42" d="M249.8,363.2H144.7c-8.3,0-15-6.8-15-15v-1.9c0-8.3,6.8-15,15-15h105.1c8.3,0,15,6.8,15,15v1.9
	C264.8,356.4,258,363.2,249.8,363.2"/>
<path fill="none" stroke="#FFFFFF" stroke-width="4.578" stroke-linecap="round" stroke-linejoin="round" stroke-miterlimit="10" d="
	M249.8,363.2H144.7c-8.3,0-15-6.8-15-15v-1.9c0-8.3,6.8-15,15-15h105.1c8.3,0,15,6.8,15,15v1.9C264.8,356.4,258,363.2,249.8,363.2z"
	/>
<path fill="#322C42" d="M251.4,407.6H146.3c-8.3,0-15-6.8-15-15v-1.9c0-8.3,6.8-15,15-15h105.1c8.3,0,15,6.8,15,15v1.9
	C266.5,400.8,259.7,407.6,251.4,407.6"/>
<path fill="none" stroke="#FFFFFF" stroke-width="4.578" stroke-linecap="round" stroke-linejoin="round" stroke-miterlimit="10" d="
	M251.4,407.6H146.3c-8.3,0-15-6.8-15-15v-1.9c0-8.3,6.8-15,15-15h105.1c8.3,0,15,6.8,15,15v1.9C266.5,400.8,259.7,407.6,251.4,407.6
	z"/>
<path fill="#322C42" d="M169.8,418.8h58.8c0,3.3-0.4,11-4.9,18.6c-7.4,12.3-19.8,14.1-21.7,14.3c-1.6,0.1-15.5,1.1-25-11.2
	C170.2,431.8,169.8,421.7,169.8,418.8"/>
<path fill="none" stroke="#FFFFFF" stroke-width="4.578" stroke-linecap="round" stroke-linejoin="round" stroke-miterlimit="10" d="
	M169.8,418.8h58.8c0,3.3-0.4,11-4.9,18.6c-7.4,12.3-19.8,14.1-21.7,14.3c-1.6,0.1-15.5,1.1-25-11.2
	C170.2,431.8,169.8,421.7,169.8,418.8z"/>
<path fill="#329ED8" d="M187.4,270.5h77.2v0.2h0l43.3,45h29.4v17.5h59.2V276h-59.2v19.5h-20.8l-43.3-45h-17.7
	c4.1-8.9,9-17.4,13.7-26.9h-53.1v-0.4H37.3c1,0.4,2.1,0.8,3.3,1.2c13.4,3.9,17.4,10.9,14.1,18.3c-3.3,7.4-3.4,12.7,4.4,14.4l3.8,2.2
	c0,0-7,6.8-6.2,11.4h130.8V270.5z M355.6,294.2h22.9V317h-22.9V294.2z"/>
<path fill="#733F97" d="M59.9,274c4.5,3.7,8.3,3.4,9.5,6.3c0.8,1.8,0.6,4.1-0.4,7c-2.4,7.2-6.3,27.6,16.4,24.3
	c0,0,10.6-2.1,29.7-4.9c16.2-2.4,24,14.3,28.6,33.6c0.1,0.4,0.3,0.9,0.4,1.3c18.1-1,36.3-2,54.6-3.2c18.4-1.2,36.6-2.4,54.7-3.8
	c-0.4-9.2-1.5-19.5-3.5-30.5c-1.1-6-2.4-11.7-3.8-17h-58.9v-16.5H56.6C57.2,271.5,58.3,272.7,59.9,274"/>
<path fill="#31499C" d="M204.7,92.6h94.4l34.1-29.3h43.9v19.5h59.2V23.6h-59.2v19.5h-51.4l-34.3,29.5h-35.6
	c-51.8-52-155-44-187.9,20.6h136.7V92.6z M395.2,41.7h22.9v22.9h-22.9V41.7z"/>
<path fill="#F8CA17" d="M160.9,150.4h127.6v0h48.8v19.9h59.2v-59.2h-59.2v19.1h-52.9c-1.2-7.5-3-14.4-5.4-21h-74.5V93.1H68
	c-8.1,15.9-11.9,35.3-9.7,58h102.7V150.4z M355.6,129.3h22.9v22.8h-22.9V129.3z"/>
<path fill="#D8218D" d="M216.2,206.9h107.5v0.1h10l23,30.5h54.7v18.2h59.2v-60.2h-59.2v21.8h-44.7l-23-30.5h-61.3
	c1.3-6.1,2.3-12.6,3-19.9H160.9v-15.9H58.2c0,0.4,0.1,0.8,0.1,1.3c0,0,2.3,18.6-14.9,43c-12,17.1-15.5,23.8-6.1,27.8h178.9V206.9z
	 M429.6,213.7h22.8v22.9h-22.8V213.7z"/>
<path fill="#322C42" d="M249.8,363.2H144.7c-8.3,0-15-6.8-15-15v-1.9c0-8.3,6.8-15,15-15h105.1c8.3,0,15,6.8,15,15v1.9
	C264.8,356.4,258,363.2,249.8,363.2"/>
<path fill="#322C42" d="M251.4,407.6H146.3c-8.3,0-15-6.8-15-15v-1.9c0-8.3,6.8-15,15-15h105.1c8.3,0,15,6.8,15,15v1.9
	C266.5,400.8,259.7,407.6,251.4,407.6"/>
<path fill="#322C42" d="M169.8,418.8h58.8c0,3.3-0.4,11-4.9,18.6c-7.4,12.3-19.8,14.1-21.7,14.3c-1.6,0.1-15.5,1.1-25-11.2
	C170.2,431.8,169.8,421.7,169.8,418.8"/>
</svg>
